<?xml version="1.0" encoding="utf-8"?>
<!-- Generator: Adobe Illustrator 23.1.0, SVG Export Plug-In . SVG Version: 6.00 Build 0)  -->
<svg version="1.1" xmlns="http://www.w3.org/2000/svg" xmlns:xlink="http://www.w3.org/1999/xlink" x="0px" y="0px"
	 viewBox="0 0 262.6 271.8" style="enable-background:new 0 0 262.6 271.8;" xml:space="preserve">
<style type="text/css">
	.st0{fill:#FFFFFF;}
	.st1{display:none;}
	.st2{display:inline;fill:#FFFFFF;}
	.st3{display:inline;fill:none;stroke:#000000;stroke-width:28;stroke-miterlimit:10;}
	.st4{display:inline;}
	.st5{fill:#58595B;}
	.st6{fill:#939598;}
</style>
<g id="Layer_1">
	<path class="st0" d="M250.1,271.8H12.5c-6.9,0-12.5-5.6-12.5-12.5V12.5C0,5.6,5.6,0,12.5,0h237.6c6.9,0,12.5,5.6,12.5,12.5v246.8
		C262.6,266.2,257,271.8,250.1,271.8z"/>
	<g>
		<path d="M10.2,183.5V232c0,4.4,1,8.5,2.8,12.2l28.9-30.7v-30H10.2z"/>
		<path d="M221.7,9.7h-89.8v31.9h68.5l28.1-31.1C226.2,10,224,9.7,221.7,9.7z"/>
	</g>
	<g>
		<path d="M249.3,93.2V37.3c0-3.4-0.6-6.7-1.8-9.7l-29.9,31.7v33.9H249.3z"/>
		<path d="M131.7,227.7H62.3l-28.4,31.6c1.3,0.2,2.6,0.3,3.9,0.3h93.9V227.7z"/>
	</g>
	<path d="M115.7,91.6c-5.4-12.2-14.1-19.8-26.1-23c-0.5-0.1-0.7-0.4-0.8-0.7c-0.1-0.3,0-0.6,0.3-0.9l27.3-21.4c1-0.9,1.6-2,1.6-3.4
		v-30c0-0.8-0.3-1.4-0.8-1.9c-0.5-0.5-1.2-0.8-1.9-0.8H30.8L14.3,27.4v11.4c0,0.8,0.3,1.4,0.8,1.9c0.5,0.5,1.2,0.8,1.9,0.8h49.4
		c0.5,0,0.7,0.2,0.8,0.5c0.1,0.3,0,0.6-0.3,0.9L32.1,69.2c-0.8,0.5-1.1,1.1-1.1,2c0,0.5,0.2,1.1,0.7,1.8l16,22.5
		c0.5,0.9,1.1,1.4,2,1.4c0.5,0,1-0.2,1.8-0.7c3.2-2.3,5.7-3.9,7.8-5.1c2-1.1,3.9-1.7,5.5-1.7c6.5,0,11.3,2.8,14.4,8.3
		c2.1,4.5,3.2,9.8,3.2,15.8c0,6.2-1.1,11.1-3.2,14.9c-3.2,5.7-7.9,8.6-14.2,8.6c-3.3,0-6.2-0.8-8.6-2.4c-2.4-1.6-4.2-3.9-5.4-6.9
		c-1.5-3.5-2.4-7.1-2.7-10.8c-0.2-1.8-1.1-2.7-2.9-2.7H13c-1.8,0-2.7,0.9-2.7,2.7c0.5,7.2,1.9,13.8,4.3,19.8
		c4.1,9.9,10.6,17.8,19.6,23.6c9,5.8,19.4,8.7,31.1,8.7c7.2,0,13.8-1,19.9-3l33.1-35.9c1.3-4.9,2-10,2-15.4
		C120.3,106.5,118.8,98.8,115.7,91.6z"/>
	<path d="M167.4,255.4c9,5.8,19.4,8.7,31.1,8.7c5,0,9.8-0.5,14.3-1.5l40-43.4c0.5-3.1,0.7-6.2,0.7-9.4c0-8.3-1.5-16-4.5-23.2
		c-5.4-12.2-14.1-19.8-26.1-23c-0.5-0.1-0.7-0.4-0.8-0.7c-0.1-0.3,0-0.6,0.3-0.9l27.3-21.4c1.1-0.9,1.6-2,1.6-3.4v-30
		c0-0.8-0.3-1.4-0.8-1.9c-0.5-0.5-1.2-0.8-1.9-0.8h-72.1L148,135.4c0.1,0.1,0.2,0.3,0.3,0.4c0.5,0.5,1.2,0.8,1.9,0.8h49.4
		c0.5,0,0.7,0.2,0.8,0.5c0.1,0.3,0,0.6-0.3,0.9l-34.7,26.4c-0.8,0.5-1.1,1.1-1.1,2c0,0.5,0.2,1.1,0.7,1.8l16,22.5
		c0.5,0.9,1.1,1.4,2,1.4c0.5,0,1.1-0.2,1.8-0.7c3.2-2.3,5.7-3.9,7.8-5.1c2-1.1,3.9-1.7,5.5-1.7c6.5,0,11.3,2.8,14.4,8.3
		c2.1,4.5,3.2,9.8,3.2,15.8c0,6.2-1.1,11.1-3.2,14.9c-3.2,5.7-7.9,8.6-14.2,8.6c-3.3,0-6.2-0.8-8.6-2.4c-2.4-1.6-4.2-3.9-5.4-6.9
		c-1.5-3.5-2.4-7.1-2.7-10.8c-0.2-1.8-1.1-2.7-2.9-2.7h-32.5c-1.8,0-2.7,0.9-2.7,2.7c0.5,7.2,1.9,13.8,4.3,19.8
		C151.8,241.8,158.4,249.7,167.4,255.4z"/>
</g>
<g id="Layer_2" class="st1">
	<path class="st2" d="M263.4-5.1H0c-5.5,0-10,4.5-10,10v263.4c0,5.5,4.5,10,10,10h263.4c5.5,0,10-4.5,10-10V4.9
		C273.4-0.6,268.9-5.1,263.4-5.1z"/>
	<path class="st3" d="M215.6,233.1H47.8c-6.7,0-12.2-5.5-12.2-12.2V53.1c0-6.7,5.5-12.2,12.2-12.2h167.8c6.7,0,12.2,5.5,12.2,12.2
		v167.8C227.7,227.6,222.3,233.1,215.6,233.1z"/>
	<rect x="-10.1" y="20.7" class="st2" width="141.7" height="126.7"/>
	<g class="st4">
		<path class="st5" d="M108.9,89.8c0,6.3-1.5,12.2-4.5,17.7c-3.9,7.6-10.2,13.6-19,17.9c-8.8,4.4-19.2,6.6-31.1,6.6
			c-11.6,0-21.9-2.2-30.9-6.7C14.5,120.8,8,114.7,4,107c-2.4-4.7-3.8-9.8-4.2-15.4c0-1.4,0.9-2.1,2.7-2.1h32.2
			c1.8,0,2.8,0.7,2.9,2.1c0.3,2.9,1.2,5.7,2.7,8.4c1.2,2.3,3,4.1,5.4,5.3c2.4,1.2,5.2,1.8,8.5,1.8c6.3,0,11-2.2,14.1-6.7
			c2.1-2.9,3.1-6.8,3.1-11.6c0-4.7-1-8.8-3.1-12.3c-3.1-4.3-7.9-6.5-14.3-6.5c-1.6,0-3.5,0.4-5.5,1.3c-2,0.9-4.6,2.2-7.7,3.9
			C40,75.8,39.4,76,38.9,76c-0.9,0-1.6-0.3-2-1L21,57.5c-0.4-0.6-0.7-1.1-0.7-1.4c0-0.7,0.4-1.2,1.1-1.6L55.9,34
			c0.3-0.2,0.4-0.5,0.3-0.7c-0.1-0.2-0.3-0.3-0.8-0.3h-49c-0.7,0-1.4-0.2-1.9-0.6c-0.5-0.4-0.8-0.9-0.8-1.5V10.2
			c0-0.6,0.3-1.1,0.8-1.5c0.5-0.4,1.2-0.6,1.9-0.6H104c0.7,0,1.4,0.2,1.9,0.6c0.5,0.4,0.8,0.9,0.8,1.5v23.3c0,1-0.5,1.9-1.6,2.6
			L78.1,52.7c-0.3,0.2-0.4,0.5-0.3,0.7c0.1,0.2,0.3,0.4,0.8,0.5c11.9,2.4,20.6,8.4,25.9,17.9C107.4,77.4,108.9,83.4,108.9,89.8z"/>
	</g>
	<g class="st4">
		<path class="st6" d="M135.6,186c9.2,5.5,12.3,15.4,9.3,29.8c-2.7,12.9-8.7,22.7-18,29.5c-9.3,6.8-20.4,10.7-33.3,11.5l-46,3.1
			c-0.6,0-1-0.2-1.3-0.6c-0.3-0.4-0.4-1-0.3-1.6l27.4-130.3c0.1-0.6,0.4-1.2,1-1.7c0.5-0.5,1-0.7,1.6-0.8l44.7-3
			c14.1-0.9,24.1,1.3,30.1,6.7c6,5.4,7.6,14.8,4.8,28c-2.6,12.6-9.2,22-19.6,28.1C135.1,185.3,135,185.7,135.6,186z M96.6,151.6
			l-5.1,24.3c-0.1,0.6,0.1,0.9,0.7,0.9l17.1-1.1c4.7-0.3,8.6-1.7,11.6-4.1c3-2.4,5-5.7,5.8-9.8c0.9-4.2,0.3-7.4-1.7-9.6
			c-2.1-2.1-5.4-3.1-10.2-2.7l-17.1,1.1C97.1,150.6,96.7,150.9,96.6,151.6z M110.8,225c3-2.5,5-6.1,6-10.6c0.9-4.4,0.4-7.7-1.6-9.9
			c-2-2.2-5.3-3.2-10.1-2.8L86.6,203c-0.6,0-0.9,0.4-1.1,1l-5.4,25.6c-0.1,0.6,0.1,0.9,0.7,0.9l18.5-1.2
			C104,229,107.8,227.6,110.8,225z"/>
		<path class="st6" d="M176.6,250.3c-0.3-0.4-0.4-1-0.3-1.6l9.6-45.7c0.1-0.5,0.1-0.9,0.1-1.1l-18.1-80.3c-0.1-0.5-0.2-0.9-0.1-1.1
			c0.2-1,1-1.6,2.2-1.7l26.7-1.8c1.2-0.1,1.8,0.4,2.1,1.6l8.6,47.5c0.2,0.7,0.5,0.7,1-0.1l29.3-50c0.7-1.2,1.6-1.8,2.8-1.9l26.8-1.8
			c0.8-0.1,1.3,0.1,1.5,0.6c0.2,0.4,0,1.1-0.5,2L214.9,200c-0.2,0.3-0.3,0.7-0.4,1.2l-9.6,45.7c-0.1,0.6-0.5,1.2-1,1.7
			c-0.5,0.5-1,0.7-1.6,0.8l-24.4,1.6C177.3,250.9,176.9,250.7,176.6,250.3z"/>
	</g>
</g>
</svg>
